<svg version="1.1" id="Layer_1" xmlns="http://www.w3.org/2000/svg" xmlns:xlink="http://www.w3.org/1999/xlink" x="0px" y="0px"
	 width="100%" viewBox="0 0 1388 1571" enable-background="new 0 0 1388 1571" xml:space="preserve">
<path fill="#3947AA" opacity="1.000000" stroke="none" 
	d="
M1313.000000,1572.000000 
	C999.970642,1572.000000 686.941284,1572.000000 373.426575,1571.621826 
	C371.867798,1568.279053 370.905365,1565.268799 369.701569,1562.358276 
	C364.754974,1550.399658 361.488190,1538.105103 362.009796,1525.030396 
	C362.579285,1510.755737 367.694946,1498.369751 378.210144,1488.642578 
	C388.582550,1479.047607 401.331940,1473.802368 414.775665,1470.038818 
	C440.600525,1462.808716 467.214935,1461.412842 493.726440,1460.210205 
	C520.792358,1458.982666 547.931213,1459.412476 575.035645,1458.964233 
	C587.828979,1458.752686 600.616394,1458.183960 613.752563,1457.837891 
	C631.545349,1466.112549 649.054382,1474.197144 666.420105,1482.578857 
	C681.663696,1489.936523 696.573730,1489.938110 712.037964,1482.823975 
	C862.745422,1413.492920 1013.526611,1344.322021 1164.289429,1275.111328 
	C1176.676147,1269.424683 1189.118042,1263.856934 1201.468018,1258.091797 
	C1213.846558,1252.313477 1221.036255,1242.869873 1221.174683,1228.840454 
	C1221.281494,1218.024658 1221.187256,1207.206787 1221.167969,1196.389771 
	C1221.116455,1167.568970 1221.018433,1138.748291 1221.008667,1109.927490 
	C1220.985107,1039.953491 1220.999756,969.979553 1221.008179,900.005615 
	C1221.008423,898.010010 1221.114502,896.014465 1221.503418,893.932983 
	C1223.133911,893.126404 1224.518433,892.525757 1225.717407,891.666443 
	C1237.059204,883.537781 1248.167725,875.066223 1259.730591,867.267151 
	C1283.878540,850.979614 1308.988037,836.286743 1335.532715,824.228516 
	C1353.222168,816.192871 1371.168579,808.723022 1389.000000,801.000000 
	C1389.000000,1047.362671 1389.000000,1293.725464 1388.614502,1540.626221 
	C1362.772095,1546.296387 1338.910889,1555.585938 1316.561768,1568.770752 
	C1315.209961,1569.568359 1314.179810,1570.911011 1313.000000,1572.000000 
z"/>
<path fill="#3947AA" opacity="1.000000" stroke="none" 
	d="
M1.000000,942.000000 
	C1.000000,680.638611 1.000000,419.277252 1.373052,157.378082 
	C9.209831,154.552017 16.694372,152.329178 24.133497,149.963562 
	C49.507763,141.894592 73.180199,130.323669 94.717812,114.659477 
	C116.638229,98.716881 135.444077,79.589119 151.683136,57.862930 
	C164.649689,40.515007 174.872147,21.833757 181.000000,1.000000 
	C448.361359,1.000000 715.722717,1.000000 983.396973,1.313863 
	C981.978699,2.528530 980.340942,3.757566 978.502380,4.280527 
	C954.040466,11.238688 929.613098,18.331436 905.053345,24.929665 
	C862.970825,36.235577 820.763550,47.077713 778.696899,58.441265 
	C769.277710,60.985691 760.223022,64.879349 750.673706,68.359344 
	C739.265076,68.322144 728.184265,67.953354 717.101135,67.853706 
	C662.283569,67.360870 607.467163,68.093102 552.856934,73.022453 
	C504.953156,77.346458 457.062317,82.220093 409.378479,88.472885 
	C349.465729,96.329269 290.196167,108.102119 231.371140,121.973534 
	C216.643738,125.446365 201.937607,129.054581 187.356491,133.087860 
	C176.156464,136.185867 169.535233,143.706711 168.496078,155.589615 
	C168.249771,158.405991 168.019806,161.236176 168.021545,164.059860 
	C168.032944,182.558212 168.126297,201.056473 168.162689,219.554825 
	C168.279068,278.714966 168.459946,337.875092 168.475662,397.035278 
	C168.518875,559.701843 168.491913,722.368408 168.476685,885.034973 
	C168.476501,887.022827 168.264221,889.010620 167.790680,891.071838 
	C164.770630,892.497437 162.139099,893.909058 159.446564,895.192627 
	C134.491592,907.089661 109.161690,918.044983 82.611107,925.970520 
	C55.918915,933.938416 28.778553,939.583374 1.000000,942.000000 
z"/>
<path fill="#4348BD" opacity="1.000000" stroke="none" 
	d="
M1.000000,942.468628 
	C28.778553,939.583374 55.918915,933.938416 82.611107,925.970520 
	C109.161690,918.044983 134.491592,907.089661 159.446564,895.192627 
	C162.139099,893.909058 164.770630,892.497437 167.919373,891.526001 
	C168.325394,927.882996 168.205429,963.859131 168.167297,999.835327 
	C168.088013,1074.630981 168.184418,1149.427002 167.898697,1224.221802 
	C167.833084,1241.401978 175.194763,1252.747070 190.671814,1259.950073 
	C305.812195,1313.535767 420.880402,1367.276611 535.937317,1421.041504 
	C561.828857,1433.140259 587.586975,1445.524292 613.406494,1457.777100 
	C600.616394,1458.183960 587.828979,1458.752686 575.035645,1458.964233 
	C547.931213,1459.412476 520.792358,1458.982666 493.726440,1460.210205 
	C467.214935,1461.412842 440.600525,1462.808716 414.775665,1470.038818 
	C401.331940,1473.802368 388.582550,1479.047607 378.210144,1488.642578 
	C367.694946,1498.369751 362.579285,1510.755737 362.009796,1525.030396 
	C361.488190,1538.105103 364.754974,1550.399658 369.701569,1562.358276 
	C370.905365,1565.268799 371.867798,1568.279053 372.970612,1571.621826 
	C249.054138,1572.000000 125.108276,1572.000000 1.000000,1572.000000 
	C1.000000,1362.312500 1.000000,1152.624878 1.000000,942.468628 
z"/>
<path fill="#4348BD" opacity="1.000000" stroke="none" 
	d="
M751.000488,68.151840 
	C760.223022,64.879349 769.277710,60.985691 778.696899,58.441265 
	C820.763550,47.077713 862.970825,36.235577 905.053345,24.929665 
	C929.613098,18.331436 954.040466,11.238688 978.502380,4.280527 
	C980.340942,3.757566 981.978699,2.528530 983.854858,1.313863 
	C1118.951050,1.000000 1253.901978,1.000000 1389.000000,1.000000 
	C1389.000000,267.354218 1389.000000,533.708435 1389.000000,800.531372 
	C1371.168579,808.723022 1353.222168,816.192871 1335.532715,824.228516 
	C1308.988037,836.286743 1283.878540,850.979614 1259.730591,867.267151 
	C1248.167725,875.066223 1237.059204,883.537781 1225.717407,891.666443 
	C1224.518433,892.525757 1223.133911,893.126404 1221.431152,893.467529 
	C1221.018311,891.255249 1221.001953,889.422607 1221.002319,887.589905 
	C1221.056763,644.642273 1221.113770,401.694580 1221.165771,158.746918 
	C1221.169067,143.142685 1216.389282,136.552444 1201.273193,132.644333 
	C1146.328125,118.438904 1090.941772,106.141418 1034.909546,97.148712 
	C994.003479,90.583649 952.953308,84.711967 911.805481,79.921623 
	C877.268311,75.900887 842.513123,73.676933 807.823303,71.072639 
	C788.915833,69.653191 769.943542,69.097237 751.000488,68.151840 
z"/>
<path fill="#4348BD" opacity="1.000000" stroke="none" 
	d="
M180.531342,1.000000 
	C174.872147,21.833757 164.649689,40.515007 151.683136,57.862930 
	C135.444077,79.589119 116.638229,98.716881 94.717812,114.659477 
	C73.180199,130.323669 49.507763,141.894592 24.133497,149.963562 
	C16.694372,152.329178 9.209831,154.552017 1.373052,156.920135 
	C1.000000,105.067772 1.000000,53.135544 1.000000,1.000000 
	C60.687408,1.000000 120.375046,1.000000 180.531342,1.000000 
z"/>
<path fill="#4348BD" opacity="1.000000" stroke="none" 
	d="
M1313.468750,1572.000000 
	C1314.179810,1570.911011 1315.209961,1569.568359 1316.561768,1568.770752 
	C1338.910889,1555.585938 1362.772095,1546.296387 1388.614502,1541.082275 
	C1389.000000,1551.290894 1389.000000,1561.581787 1389.000000,1572.000000 
	C1363.979248,1572.000000 1338.958252,1572.000000 1313.468750,1572.000000 
z"/>
<path fill="#FEFEFF" opacity="1.000000" stroke="none" 
	d="
M750.673706,68.359344 
	C769.943542,69.097237 788.915833,69.653191 807.823303,71.072639 
	C842.513123,73.676933 877.268311,75.900887 911.805481,79.921623 
	C952.953308,84.711967 994.003479,90.583649 1034.909546,97.148712 
	C1090.941772,106.141418 1146.328125,118.438904 1201.273193,132.644333 
	C1216.389282,136.552444 1221.169067,143.142685 1221.165771,158.746918 
	C1221.113770,401.694580 1221.056763,644.642273 1221.002319,887.589905 
	C1221.001953,889.422607 1221.018311,891.255249 1221.098999,893.553406 
	C1221.114502,896.014465 1221.008423,898.010010 1221.008179,900.005615 
	C1220.999756,969.979553 1220.985107,1039.953491 1221.008667,1109.927490 
	C1221.018433,1138.748291 1221.116455,1167.568970 1221.167969,1196.389771 
	C1221.187256,1207.206787 1221.281494,1218.024658 1221.174683,1228.840454 
	C1221.036255,1242.869873 1213.846558,1252.313477 1201.468018,1258.091797 
	C1189.118042,1263.856934 1176.676147,1269.424683 1164.289429,1275.111328 
	C1013.526611,1344.322021 862.745422,1413.492920 712.037964,1482.823975 
	C696.573730,1489.938110 681.663696,1489.936523 666.420105,1482.578857 
	C649.054382,1474.197144 631.545349,1466.112549 613.752563,1457.837891 
	C587.586975,1445.524292 561.828857,1433.140259 535.937317,1421.041504 
	C420.880402,1367.276611 305.812195,1313.535767 190.671814,1259.950073 
	C175.194763,1252.747070 167.833084,1241.401978 167.898697,1224.221802 
	C168.184418,1149.427002 168.088013,1074.630981 168.167297,999.835327 
	C168.205429,963.859131 168.325394,927.882996 168.279617,891.452637 
	C168.264221,889.010620 168.476501,887.022827 168.476685,885.034973 
	C168.491913,722.368408 168.518875,559.701843 168.475662,397.035278 
	C168.459946,337.875092 168.279068,278.714966 168.162689,219.554825 
	C168.126297,201.056473 168.032944,182.558212 168.021545,164.059860 
	C168.019806,161.236176 168.249771,158.405991 168.496078,155.589615 
	C169.535233,143.706711 176.156464,136.185867 187.356491,133.087860 
	C201.937607,129.054581 216.643738,125.446365 231.371140,121.973534 
	C290.196167,108.102119 349.465729,96.329269 409.378479,88.472885 
	C457.062317,82.220093 504.953156,77.346458 552.856934,73.022453 
	C607.467163,68.093102 662.283569,67.360870 717.101135,67.853706 
	C728.184265,67.953354 739.265076,68.322144 750.673706,68.359344 
M245.569199,841.929382 
	C245.435898,878.249329 245.237076,914.569153 245.183258,950.889221 
	C245.079071,1021.206848 245.205627,1091.525269 244.879272,1161.841675 
	C244.810837,1176.587769 250.507309,1186.030884 264.191376,1192.231445 
	C305.383118,1210.896729 346.269623,1230.238647 387.201752,1249.472778 
	C481.701080,1293.878418 576.183105,1338.321167 670.600159,1382.901367 
	C683.355347,1388.923706 695.476440,1389.307373 708.454895,1383.291382 
	C786.304749,1347.205933 864.290100,1311.412598 942.233765,1275.529541 
	C974.852356,1260.512817 1007.480225,1245.516235 1040.827515,1230.287964 
	C1069.404907,1217.255249 1097.859619,1203.942871 1126.617065,1191.319946 
	C1139.061035,1185.857666 1144.419922,1177.355713 1144.297119,1163.795776 
	C1143.882812,1117.998657 1144.081299,1072.196167 1143.984985,1026.395752 
	C1143.946777,1008.248596 1143.750000,990.101746 1143.815186,971.165344 
	C1143.820435,923.999939 1143.808838,876.834534 1143.834106,829.669128 
	C1143.936768,637.176453 1144.053345,444.683777 1144.155884,252.191116 
	C1144.165894,233.575226 1139.261353,227.209595 1121.156616,222.656647 
	C1037.585571,201.640289 952.973816,186.553391 867.229004,177.764420 
	C821.145569,173.040817 774.951843,169.586884 728.662048,169.422516 
	C683.718140,169.262924 638.763245,171.039474 593.821289,172.263641 
	C582.873718,172.561844 571.957947,174.027115 560.121704,174.863754 
	C550.499390,175.631531 540.860535,176.234329 531.257385,177.194199 
	C474.100067,182.907364 417.207245,190.572220 360.905365,202.038681 
	C329.299286,208.475571 297.864685,215.779785 266.436554,223.054733 
	C250.517426,226.739670 244.949326,234.213394 245.015015,250.231354 
	C245.135910,279.716858 245.478317,309.201965 245.486862,338.687286 
	C245.534775,503.978241 245.509293,669.269226 245.523972,834.560181 
	C245.524170,836.715271 245.720749,838.870300 245.569199,841.929382 
z"/>
<path fill="#4348BD" opacity="1.000000" stroke="none" 
	d="
M1040.103882,1230.510498 
	C1007.480225,1245.516235 974.852356,1260.512817 942.233765,1275.529541 
	C864.290100,1311.412598 786.304749,1347.205933 708.454895,1383.291382 
	C695.476440,1389.307373 683.355347,1388.923706 670.600159,1382.901367 
	C576.183105,1338.321167 481.701080,1293.878418 387.201752,1249.472778 
	C346.269623,1230.238647 305.383118,1210.896729 264.191376,1192.231445 
	C250.507309,1186.030884 244.810837,1176.587769 244.879272,1161.841675 
	C245.205627,1091.525269 245.079071,1021.206848 245.183258,950.889221 
	C245.237076,914.569153 245.435898,878.249329 246.043411,841.391357 
	C247.512878,840.264709 248.556351,839.744141 249.496277,839.077576 
	C272.495636,822.766418 293.748413,804.287231 313.668701,784.467651 
	C330.387848,767.833008 346.047424,750.057373 361.310272,732.052795 
	C384.317932,704.912048 403.656555,675.195007 420.163177,643.661072 
	C434.442627,616.382019 445.432251,587.853455 452.493896,557.857361 
	C458.231812,533.484131 461.490814,508.762299 461.936310,483.734161 
	C462.264832,465.278564 461.748779,446.807983 462.075500,428.352356 
	C462.411102,409.398285 463.050293,390.440552 464.040253,371.509674 
	C465.060120,352.006683 468.617645,332.892426 474.088928,314.120209 
	C481.507080,288.668365 492.310211,264.712585 507.037201,242.748688 
	C517.110718,227.724930 528.269470,213.397583 539.462341,199.167328 
	C546.131470,190.688400 553.805298,182.999695 561.027527,174.955765 
	C571.957947,174.027115 582.873718,172.561844 593.821289,172.263641 
	C638.763245,171.039474 683.718140,169.262924 728.662048,169.422516 
	C774.951843,169.586884 821.145569,173.040817 867.229004,177.764420 
	C952.973816,186.553391 1037.585571,201.640289 1121.156616,222.656647 
	C1139.261353,227.209595 1144.165894,233.575226 1144.155884,252.191116 
	C1144.053345,444.683777 1143.936768,637.176453 1143.834106,829.669128 
	C1143.808838,876.834534 1143.820435,923.999939 1143.362305,971.661194 
	C1141.322876,973.587402 1139.494263,974.826111 1138.186646,976.477417 
	C1122.966309,995.699707 1109.337158,1015.991638 1098.137329,1037.821167 
	C1080.913818,1071.391357 1070.821289,1107.397949 1062.029297,1143.880493 
	C1055.050903,1172.836792 1047.436035,1201.639526 1040.103882,1230.510498 
M881.500000,1034.018311 
	C892.664551,1034.014526 903.829651,1034.068848 914.993469,1033.976318 
	C919.060242,1033.942627 921.858337,1031.805908 921.843201,1027.623657 
	C921.828003,1023.435791 919.124695,1021.417419 914.940796,1021.462830 
	C913.941101,1021.473694 912.941223,1021.452515 911.941406,1021.452515 
	C766.968323,1021.451965 621.995178,1021.451904 477.022095,1021.453064 
	C475.855713,1021.453064 474.683136,1021.393005 473.524109,1021.489319 
	C470.046844,1021.778259 467.991913,1023.615601 467.772858,1027.172729 
	C467.540466,1030.946289 469.501892,1033.193848 473.090668,1033.831665 
	C475.034912,1034.177124 477.076721,1034.012451 479.074493,1034.012573 
	C612.882996,1034.018677 746.691467,1034.018311 881.500000,1034.018311 
M632.111084,503.419495 
	C646.570251,513.498108 660.285706,512.864807 674.118774,501.391663 
	C678.216492,497.992981 681.991638,494.182526 686.239746,490.993958 
	C691.766296,486.845825 695.807434,486.909851 701.268738,491.058136 
	C704.836426,493.768036 708.084961,496.908508 711.397766,499.942017 
	C726.642761,513.901550 742.714783,514.039856 758.203674,500.311035 
	C761.565857,497.330902 764.818970,494.209869 768.343506,491.434601 
	C774.438904,486.635010 778.995056,486.585663 785.011841,491.406158 
	C789.553894,495.045105 793.713928,499.156311 798.161316,502.918671 
	C809.240723,512.291565 824.124390,513.345886 836.086975,505.254974 
	C840.743408,502.105591 844.980286,498.265350 849.095154,494.405914 
	C853.081970,490.666595 853.215820,486.867462 850.087280,483.482910 
	C846.896240,480.030731 843.212646,479.941254 839.068848,483.409576 
	C836.134277,485.865753 833.475769,488.659607 830.482788,491.036743 
	C823.089661,496.908813 816.036438,496.929749 808.679504,491.052826 
	C805.435303,488.461243 802.534119,485.444672 799.407104,482.700989 
	C784.559021,469.673065 771.173645,469.641998 756.225525,482.542114 
	C752.697571,485.586609 749.295349,488.810181 745.547974,491.559662 
	C738.478149,496.746765 732.297485,496.536896 725.509827,491.022217 
	C722.157043,488.298248 719.072998,485.243195 715.871948,482.332855 
	C702.395813,470.080322 690.046875,469.444031 675.505615,480.473846 
	C671.534180,483.486206 667.959656,487.016296 664.118591,490.207153 
	C655.807373,497.111481 648.473083,497.032990 640.408325,489.986908 
	C637.525391,487.468109 634.749207,484.827545 631.897522,482.272522 
	C618.157471,469.961914 605.072021,469.738159 590.783691,481.587067 
	C586.811340,484.881256 583.035156,488.428864 578.921631,491.532410 
	C571.778503,496.921661 564.823364,496.757233 557.904907,491.242889 
	C555.960449,489.693085 554.354370,487.724274 552.448181,486.119904 
	C549.033875,483.246155 542.216431,483.195282 539.516724,486.230042 
	C536.174561,489.987030 538.475464,493.329834 540.868652,496.475494 
	C553.018127,512.444824 573.847717,514.946289 589.380493,502.244904 
	C593.372742,498.980408 597.035767,495.304840 601.098816,492.137146 
	C608.771545,486.155304 613.091309,486.382812 620.497864,492.881165 
	C624.247742,496.171326 627.862671,499.615387 632.111084,503.419495 
M800.472473,568.078369 
	C807.300964,570.854492 813.251404,575.592163 821.667542,574.145630 
	C833.319092,572.142944 841.911072,565.903748 848.838806,557.028137 
	C851.383118,553.768494 850.721069,549.519958 847.741028,546.525818 
	C844.888123,543.659363 841.582581,544.713806 838.725708,546.968018 
	C835.982178,549.132812 833.381531,551.477722 830.688171,553.707336 
	C821.573181,561.252991 814.718628,561.203369 805.752869,553.568909 
	C801.067932,549.579590 796.635376,545.227356 791.619995,541.706848 
	C781.667969,534.721069 771.306335,534.788208 761.445129,541.913818 
	C756.204285,545.700806 751.575745,550.325134 746.562744,554.439819 
	C738.370972,561.163696 731.803955,561.161133 723.728149,554.414978 
	C719.385193,550.787048 715.395203,546.718689 710.924316,543.265442 
	C699.513550,534.452026 689.140625,534.288940 677.526306,542.755676 
	C672.826416,546.181824 668.544617,550.178101 664.034912,553.868958 
	C655.568970,560.797729 648.838196,560.898804 640.243347,554.009521 
	C636.220032,550.784607 632.604431,547.046814 628.547241,543.869324 
	C616.607727,534.518616 604.483215,534.429688 592.394836,543.581726 
	C589.086182,546.086609 586.095703,549.017395 583.003479,551.801758 
	C571.603577,562.066528 564.731689,561.979919 553.807251,551.396423 
	C553.328613,550.932739 552.881897,550.428955 552.364319,550.013733 
	C548.938843,547.265686 545.063354,546.442017 541.255188,548.683777 
	C538.285095,550.432190 538.227539,556.295410 540.771606,560.102722 
	C544.998718,566.428833 550.841492,570.668701 558.045959,572.997986 
	C568.575439,576.402405 578.121948,574.063904 586.788757,567.633057 
	C592.401489,563.468384 597.665344,558.823364 603.365540,554.789185 
	C609.012329,550.792725 612.473389,550.915588 617.921082,555.081970 
	C621.744446,558.006104 625.200623,561.414978 628.781006,564.651306 
	C643.361328,577.830750 659.744507,577.984253 674.552795,565.060486 
	C678.438110,561.669617 682.131226,558.017639 686.263855,554.960510 
	C692.355225,550.454285 696.201050,550.627075 702.013855,555.382507 
	C706.649902,559.175232 710.841370,563.522339 715.557556,567.203857 
	C727.665100,576.655273 741.435547,576.900146 753.826782,567.846680 
	C757.974976,564.815918 761.619995,561.096436 765.494629,557.691284 
	C774.318481,549.936646 779.717285,549.989990 788.581726,557.874390 
	C792.307800,561.188599 796.077881,564.453430 800.472473,568.078369 
M740.901550,367.757812 
	C735.169495,370.248871 730.100525,368.671326 725.569519,364.967224 
	C721.190125,361.387115 717.110107,357.441040 712.734619,353.855865 
	C700.060791,343.471130 688.008789,343.336060 675.125183,353.484131 
	C670.814453,356.879608 666.884888,360.757172 662.595947,364.182587 
	C654.947693,370.290924 647.972961,370.176544 640.470825,363.964020 
	C637.394470,361.416443 634.495789,358.655487 631.452087,356.067108 
	C615.834229,342.785309 603.992310,342.789093 588.392212,355.980469 
	C584.454712,359.310028 580.574890,362.744171 576.380127,365.724152 
	C570.784363,369.699310 564.844116,369.760742 559.194214,365.716553 
	C556.641907,363.889557 554.423828,361.597382 552.041016,359.531311 
	C549.509033,357.335938 541.409973,356.626495 540.564758,358.991852 
	C539.523499,361.905762 538.891052,366.470673 540.447754,368.555450 
	C548.476318,379.307465 558.810730,385.791351 573.115784,383.036407 
	C580.565796,381.601654 586.745605,377.981842 592.355103,373.080872 
	C595.985229,369.909271 599.657471,366.775330 603.452026,363.804901 
	C608.121033,360.149872 612.967224,360.132019 617.594849,363.902618 
	C621.202820,366.842377 624.735352,369.886841 628.155701,373.042664 
	C643.668640,387.355652 660.606873,387.476349 676.289612,373.318420 
	C679.377991,370.530334 682.327148,367.558441 685.613831,365.026031 
	C692.135071,360.001404 696.752380,360.022034 703.143616,365.186005 
	C707.539368,368.737640 711.470093,372.864532 715.863831,376.418793 
	C723.779297,382.821960 732.658264,385.644073 742.888000,383.048309 
	C752.022034,380.730652 758.420044,374.316528 765.283997,368.546204 
	C777.112183,358.602600 780.096863,358.729858 791.323792,369.492584 
	C798.184937,376.070038 806.040405,381.120361 815.422119,382.883728 
	C827.719482,385.195099 844.044250,377.166321 849.997803,365.599670 
	C851.204590,363.255249 849.905457,358.769379 848.355896,356.081055 
	C846.563049,352.970734 843.023132,353.922821 840.420044,355.839447 
	C837.480103,358.004059 834.791443,360.510406 831.997803,362.873138 
	C822.708557,370.729309 815.932861,370.750244 806.767273,362.862244 
	C802.732544,359.389893 799.020630,355.496979 794.753235,352.349335 
	C783.409302,343.981903 772.149963,343.986267 760.609619,352.127808 
	C757.902954,354.037323 755.587036,356.491211 752.991394,358.569733 
	C749.238892,361.574585 745.395203,364.465393 740.901550,367.757812 
M611.967834,409.780457 
	C604.924194,408.942322 598.802673,411.404236 593.343323,415.476929 
	C588.546021,419.055725 584.078918,423.077057 579.465210,426.901886 
	C570.742493,434.133057 563.341064,433.973328 555.015137,426.419067 
	C552.922974,424.520844 550.876953,422.530121 548.577515,420.911926 
	C545.407654,418.681152 542.199097,419.148743 539.561035,421.919769 
	C537.003357,424.606323 536.164978,427.874176 538.585327,430.974182 
	C551.079163,446.976654 571.346191,453.799591 588.675232,439.165131 
	C592.872375,435.620605 596.842773,431.795746 601.155945,428.403015 
	C607.479126,423.429199 611.889343,423.460602 618.266663,428.474731 
	C621.793701,431.247803 624.960205,434.475006 628.352539,437.424652 
	C643.304016,450.425140 659.273804,450.407410 674.223389,437.435699 
	C677.993286,434.164642 681.642883,430.716583 685.661926,427.779877 
	C691.889160,423.229553 695.767212,423.414276 701.913452,428.186584 
	C705.593262,431.043793 709.042297,434.196350 712.639648,437.162109 
	C728.982666,450.636108 742.972717,450.453278 759.110779,436.637360 
	C762.903381,433.390503 766.705994,430.141327 770.676514,427.120056 
	C774.915039,423.894806 779.411621,424.022919 783.570740,427.277679 
	C787.236267,430.146210 790.472900,433.585358 794.245605,436.288788 
	C799.070557,439.746338 803.879822,443.718811 809.338074,445.702087 
	C822.730896,450.568390 841.348999,442.284515 848.278259,429.212860 
	C848.724304,428.371490 849.168701,427.193665 848.920532,426.385193 
	C848.270203,424.266785 847.583374,420.818298 846.285461,420.506836 
	C843.157410,419.756226 839.292786,419.622772 836.431519,420.865936 
	C833.231567,422.256256 830.873901,425.517029 828.038269,427.827026 
	C820.850891,433.682037 813.372437,433.689697 806.271423,427.776154 
	C803.075989,425.115112 800.140747,422.144257 797.009583,419.402863 
	C782.462952,406.666840 769.969849,406.544861 755.121277,419.006012 
	C751.423340,422.109314 747.966614,425.512329 744.163330,428.475067 
	C737.117615,433.963715 730.651306,433.966431 723.702332,428.437469 
	C720.194153,425.646149 717.035156,422.412872 713.748291,419.347137 
	C701.144226,407.590668 688.390564,406.835541 674.651672,417.264771 
	C670.015015,420.784454 665.814270,424.878632 661.176453,428.396606 
	C654.138611,433.734985 647.039795,433.578827 640.161987,428.000641 
	C636.546082,425.067963 633.274536,421.713959 629.792053,418.612518 
	C624.880371,414.238312 619.594055,410.550629 611.967834,409.780457 
M550.005188,853.768921 
	C550.005188,851.743652 550.005188,849.718384 550.005188,847.693054 
	C558.238708,858.780945 565.607849,869.856506 572.639099,881.142456 
	C574.463562,884.070923 576.373535,885.478638 579.785461,885.046570 
	C581.588745,884.818176 583.470642,884.810791 585.271240,885.049255 
	C588.310852,885.451782 590.068237,884.221191 591.676270,881.651306 
	C598.295471,871.072876 605.128784,860.628174 611.914978,850.154846 
	C612.532227,849.202209 613.375061,848.395874 615.015869,846.452148 
	C615.015869,860.174011 615.015869,872.414124 615.015869,884.749512 
	C619.213806,884.749512 622.964478,884.749512 626.816528,884.749512 
	C626.816528,864.304321 626.816528,844.118103 626.816528,824.122131 
	C618.716553,822.161377 613.414673,823.950562 609.063965,831.652222 
	C600.991089,845.942871 591.536072,859.452698 582.288696,873.860779 
	C580.984619,871.901306 579.974182,870.435791 579.016907,868.936218 
	C570.063354,854.911560 561.155090,840.857788 552.115112,826.889160 
	C551.228027,825.518372 549.646118,823.900208 548.216248,823.715454 
	C544.676331,823.257935 541.037720,823.565125 537.477661,823.565125 
	C537.477661,844.411133 537.477661,864.497925 537.477661,884.771606 
	C541.697083,884.771606 545.611755,884.771606 550.005249,884.771606 
	C550.005249,874.596558 550.005249,864.648926 550.005188,853.768921 
M522.157715,1179.590332 
	C523.192627,1179.061646 524.351807,1178.688843 525.242126,1177.978760 
	C530.598511,1173.706543 535.776001,1173.612793 541.366882,1177.801147 
	C544.253967,1179.963989 547.700806,1181.451660 551.043274,1182.901978 
	C552.556519,1183.558716 554.692200,1183.965088 556.042358,1183.360840 
	C556.827026,1183.009644 556.998962,1180.373901 556.779602,1178.863037 
	C556.064331,1173.937622 555.126770,1169.039185 554.109314,1164.164795 
	C553.411316,1160.820923 553.908875,1158.190430 556.704590,1155.790405 
	C560.608215,1152.439453 564.213135,1148.723877 567.771118,1144.997437 
	C568.810974,1143.908325 570.020752,1142.069214 569.744141,1140.910156 
	C569.502258,1139.896973 567.357605,1138.948608 565.921082,1138.679810 
	C560.533936,1137.672119 555.025513,1137.239380 549.704895,1135.986450 
	C547.620361,1135.495483 545.269958,1133.800049 544.157959,1131.973145 
	C541.404602,1127.449219 539.411682,1122.469727 536.858765,1117.812744 
	C536.076660,1116.386108 534.469360,1115.411865 533.239807,1114.230591 
	C532.064941,1115.493042 530.569153,1116.581909 529.774536,1118.050293 
	C527.246216,1122.722046 525.210876,1127.673706 522.491516,1132.222046 
	C521.467529,1133.934814 519.249939,1135.537231 517.302124,1135.978149 
	C511.970093,1137.185059 506.473999,1137.647583 501.084320,1138.631836 
	C499.609863,1138.901123 497.152435,1139.929077 497.124451,1140.682373 
	C497.068420,1142.190430 498.065247,1144.044434 499.183258,1145.232178 
	C502.598938,1148.860962 506.162140,1152.372681 509.892609,1155.676147 
	C512.744080,1158.201294 513.366577,1160.951904 512.534058,1164.587891 
	C511.423462,1169.438599 510.633820,1174.380249 510.018463,1179.321777 
	C509.418030,1184.143433 511.016296,1185.211914 515.313477,1183.160522 
	C517.410522,1182.159424 519.445618,1181.028442 522.157715,1179.590332 
M879.705750,1178.767090 
	C882.516357,1180.213745 885.261475,1181.815918 888.166016,1183.039551 
	C889.563721,1183.628296 891.723755,1184.172852 892.690247,1183.506592 
	C893.595947,1182.882446 893.790344,1180.578247 893.588318,1179.111084 
	C892.862061,1173.838867 892.077148,1168.549805 890.834534,1163.382568 
	C890.052551,1160.131226 891.051697,1158.079956 893.338562,1155.984131 
	C897.266541,1152.384277 901.068970,1148.635742 904.738220,1144.773193 
	C905.755920,1143.701904 906.642822,1141.977661 906.565186,1140.611206 
	C906.524658,1139.898438 904.317627,1138.967896 902.982910,1138.728760 
	C897.415161,1137.731934 891.751770,1137.206543 886.243591,1135.972534 
	C884.295044,1135.535889 882.060730,1133.943481 881.047546,1132.232788 
	C878.342896,1127.666016 876.340088,1122.689697 873.817688,1118.005737 
	C873.024231,1116.532349 871.467285,1115.470093 870.259827,1114.219727 
	C869.035767,1115.419922 867.442444,1116.418579 866.656799,1117.858032 
	C864.268921,1122.233154 862.105408,1126.738403 860.026794,1131.271973 
	C858.669739,1134.231934 856.866516,1135.995972 853.339355,1136.292969 
	C848.210693,1136.725220 843.105774,1137.619995 838.048218,1138.610840 
	C836.445740,1138.924561 834.546509,1139.863403 833.725464,1141.127930 
	C833.312012,1141.764771 834.749146,1144.018188 835.796448,1145.112915 
	C839.364807,1148.842041 843.058228,1152.460815 846.849670,1155.964111 
	C849.273376,1158.203491 850.227966,1160.495117 849.425598,1163.919067 
	C848.213379,1169.092407 847.489624,1174.393066 846.795471,1179.670898 
	C846.209961,1184.122437 847.767578,1185.186157 851.905029,1183.247070 
	C855.064514,1181.766479 858.357483,1180.374268 861.142822,1178.331665 
	C867.260681,1173.844727 873.106934,1173.459839 879.705750,1178.767090 
M680.218506,1167.677124 
	C679.547241,1171.610352 678.749451,1175.528564 678.275085,1179.485352 
	C678.114502,1180.824585 678.330017,1182.835571 679.181213,1183.491211 
	C680.014771,1184.133423 682.065796,1183.835327 683.254028,1183.265503 
	C688.195496,1180.895142 693.094543,1178.408325 697.844482,1175.677856 
	C700.578857,1174.105835 702.787476,1173.904663 705.628296,1175.624390 
	C710.309570,1178.458252 715.244080,1180.898682 720.182068,1183.276001 
	C724.251343,1185.235107 725.775757,1184.101807 725.167297,1179.606689 
	C724.454102,1174.337769 723.756165,1169.035034 722.496887,1163.882568 
	C721.612854,1160.265625 722.534363,1158.018433 725.298584,1155.683960 
	C729.230103,1152.363892 732.845947,1148.646729 736.383057,1144.897583 
	C737.384033,1143.836548 738.199280,1142.002563 738.029236,1140.658447 
	C737.926575,1139.847168 735.828918,1138.931641 734.513245,1138.692749 
	C729.118286,1137.713379 723.601562,1137.294189 718.293579,1135.997681 
	C716.069031,1135.454468 713.570557,1133.655029 712.386047,1131.704346 
	C709.552307,1127.038330 707.529236,1121.888550 704.978271,1117.039551 
	C702.943542,1113.171875 700.731079,1113.188843 698.651978,1117.067139 
	C696.062256,1121.898071 693.949341,1127.005127 691.089294,1131.660522 
	C689.894409,1133.605469 687.500183,1135.473755 685.313538,1136.016968 
	C680.173096,1137.293457 674.804626,1137.621216 669.582886,1138.618408 
	C667.996399,1138.921387 666.058594,1139.838989 665.306946,1141.090820 
	C664.891235,1141.783081 666.350708,1143.982544 667.396179,1145.098511 
	C670.351685,1148.253418 673.251526,1151.572632 676.688293,1154.136963 
	C681.333984,1157.603271 682.062073,1161.747437 680.218506,1167.677124 
M754.533630,1147.952637 
	C763.709106,1154.640381 767.915833,1162.824097 763.468140,1174.330322 
	C762.409119,1177.069824 763.381165,1180.594238 763.418945,1183.757690 
	C766.455444,1182.761475 770.043030,1182.481323 772.431152,1180.642944 
	C781.742737,1173.474976 790.499023,1173.800537 799.753357,1180.749146 
	C802.134827,1182.537231 805.728333,1182.711182 808.765015,1183.626709 
	C808.684814,1180.436768 809.347168,1177.001831 808.390320,1174.101074 
	C805.014160,1163.865967 806.388000,1155.451660 816.008728,1149.333618 
	C817.242615,1148.548950 818.318604,1147.375122 819.176392,1146.173462 
	C820.432861,1144.413330 821.426086,1142.465332 822.531555,1140.597534 
	C820.626526,1139.809692 818.743408,1138.960815 816.805420,1138.264648 
	C816.045349,1137.991577 815.161438,1138.069580 814.335754,1137.972168 
	C798.737549,1136.133423 798.737732,1136.132935 791.667236,1121.988037 
	C791.370361,1121.394165 791.151794,1120.739136 790.755493,1120.220581 
	C789.211304,1118.200317 787.610229,1116.223755 786.030273,1114.230713 
	C784.372009,1116.328125 782.262573,1118.207764 781.128784,1120.558105 
	C773.699829,1135.958252 773.758423,1135.913208 756.853821,1138.146606 
	C754.269897,1138.487915 751.832336,1139.937256 749.327148,1140.874146 
	C750.886414,1143.075317 752.445679,1145.276489 754.533630,1147.952637 
M610.133728,1125.648926 
	C609.545898,1126.840576 608.772034,1127.977539 608.402710,1129.233398 
	C606.874756,1134.428955 603.264771,1136.480957 598.079590,1136.803711 
	C594.109131,1137.051025 590.140503,1137.663330 586.232483,1138.427124 
	C584.425781,1138.780396 582.765320,1139.881714 581.038513,1140.643921 
	C581.934204,1142.288086 582.548279,1144.192993 583.781128,1145.525024 
	C586.826599,1148.815430 589.995667,1152.032593 593.416443,1154.922729 
	C596.745544,1157.735474 597.667480,1160.875610 596.675537,1165.059326 
	C595.565796,1169.739502 594.776001,1174.510742 594.156006,1179.282471 
	C593.969666,1180.716553 594.398438,1182.704956 595.339600,1183.640503 
	C595.941711,1184.239014 598.160522,1183.702515 599.376221,1183.106689 
	C604.445435,1180.622925 609.306763,1177.689697 614.467712,1175.432007 
	C616.246643,1174.653687 618.959290,1174.719116 620.753906,1175.511719 
	C625.906860,1177.787476 630.758667,1180.733887 635.824707,1183.221313 
	C639.881653,1185.213379 641.565796,1184.097778 640.999573,1179.678345 
	C640.324707,1174.411133 639.335327,1169.176758 638.289307,1163.967041 
	C637.654846,1160.807251 637.891541,1158.349854 640.669312,1156.031128 
	C644.742981,1152.630737 648.461304,1148.781860 652.124390,1144.927734 
	C653.131836,1143.867798 653.959045,1142.044189 653.803223,1140.693970 
	C653.710144,1139.887207 651.615173,1138.948730 650.303101,1138.708740 
	C644.912354,1137.722168 639.399658,1137.296021 634.094360,1135.998901 
	C631.869446,1135.454956 629.357056,1133.675171 628.180908,1131.728882 
	C625.271545,1126.914429 623.184265,1121.611694 620.521240,1116.636719 
	C618.716736,1113.265503 616.591614,1113.253662 614.692810,1116.518188 
	C613.110840,1119.237915 611.879333,1122.161499 610.133728,1125.648926 
M795.897095,837.022949 
	C794.795166,830.718384 790.681702,827.032227 784.892517,825.376587 
	C781.103271,824.293030 777.060242,823.710083 773.115906,823.628601 
	C761.970459,823.398254 750.817139,823.528198 739.667114,823.555176 
	C738.242554,823.558594 736.818542,823.793640 735.478149,823.913818 
	C735.478149,844.457397 735.478149,864.524963 735.478149,884.753601 
	C750.059814,884.753601 764.343018,885.029053 778.603577,884.581543 
	C782.747375,884.451538 787.088074,882.777222 790.874939,880.883606 
	C796.860352,877.890442 799.275574,871.831665 798.038513,864.751404 
	C797.003052,858.825317 792.667053,856.317505 787.362793,854.941223 
	C786.102478,854.614136 784.852051,854.248779 783.282471,853.813843 
	C794.504395,849.212219 796.037659,847.244873 795.897095,837.022949 
M874.730347,830.732483 
	C857.612671,819.263733 839.620239,819.191223 821.680298,827.890442 
	C810.900146,833.117798 806.820679,843.191650 807.033264,854.880066 
	C807.246521,866.603699 812.036743,875.829163 822.821167,881.227539 
	C835.536560,887.592590 848.963501,887.847717 862.237305,883.997742 
	C886.377075,876.996094 893.115173,848.983032 874.730347,830.732483 
M341.501770,841.147034 
	C334.159302,861.516663 342.788788,879.074463 363.078339,884.434631 
	C373.737762,887.250610 384.565918,887.142273 395.120697,883.818787 
	C409.582214,879.265198 417.328674,868.290222 417.003967,853.498840 
	C416.680847,838.778809 408.304718,828.126465 393.777405,824.130127 
	C384.460571,821.567139 374.978516,821.371521 365.579712,823.320862 
	C355.218414,825.469849 346.560852,830.339539 341.501770,841.147034 
M429.176514,852.499939 
	C429.176514,863.252502 429.176514,874.005127 429.176514,884.701538 
	C433.840668,884.701538 437.759705,884.701538 442.213379,884.701538 
	C442.213379,876.185486 442.213379,867.965271 442.213379,859.703796 
	C457.363281,859.703796 471.963257,859.703796 487.174835,859.703796 
	C487.174835,868.159485 487.174835,876.387756 487.174835,884.770752 
	C491.703125,884.770752 495.616852,884.770752 499.699463,884.770752 
	C499.699463,864.343384 499.699463,844.152954 499.699463,823.853516 
	C495.461487,823.853516 491.536407,823.853516 487.066284,823.853516 
	C487.066284,832.216736 487.066284,840.283325 487.066284,848.482056 
	C471.803070,848.482056 457.089752,848.482056 441.895233,848.482056 
	C441.895233,840.094482 441.895233,832.022949 441.895233,823.846924 
	C437.481323,823.846924 433.556305,823.846924 429.176514,823.846924 
	C429.176514,833.263367 429.176514,842.381592 429.176514,852.499939 
M960.936096,879.549255 
	C953.457275,863.793884 945.535706,848.227173 938.701233,832.197083 
	C935.649475,825.039368 931.693848,822.399536 924.183777,823.379639 
	C921.241028,823.763611 919.873047,824.705444 918.712585,827.223633 
	C912.734985,840.194946 906.603027,853.094971 900.532410,866.023438 
	C897.657898,872.145203 894.800110,878.274963 891.868530,884.542908 
	C904.683167,886.117188 904.806274,886.171814 909.650391,875.258545 
	C910.943359,872.345459 912.537842,871.280701 915.639160,871.399658 
	C921.121521,871.609863 926.706055,872.079346 932.088013,871.315125 
	C940.637878,870.101318 945.958313,872.732849 948.172119,881.375244 
	C948.542480,882.821228 950.599426,884.620972 952.084595,884.838135 
	C955.577515,885.348816 959.195862,885.001770 963.336975,885.001770 
	C962.424561,882.934509 961.835266,881.599365 960.936096,879.549255 
M663.807983,880.389099 
	C663.909058,881.822144 664.010071,883.255127 664.108643,884.652588 
	C668.356201,884.652588 672.231689,884.652588 677.317322,884.652588 
	C672.222168,868.755432 681.334290,857.632629 689.106262,846.049133 
	C690.402283,844.117493 691.647461,842.151367 692.898987,840.190247 
	C696.256775,834.928711 699.605225,829.661255 703.058716,824.237061 
	C690.782288,821.957520 689.586548,822.479919 683.779175,832.027527 
	C679.446228,839.151001 675.056641,846.239990 670.343140,853.912659 
	C664.486023,844.429871 659.137024,835.641479 653.615967,826.962524 
	C652.736267,825.579651 651.176208,823.883850 649.771729,823.723267 
	C645.883606,823.278748 641.911438,823.569275 637.260315,823.569275 
	C638.459534,825.687256 639.183105,827.110168 640.037109,828.449951 
	C645.397583,836.859375 650.349487,845.576172 656.291138,853.554871 
	C662.145935,861.417114 665.237610,869.645081 663.807983,880.389099 
M999.748352,834.133911 
	C1008.005554,834.133911 1016.262695,834.133911 1024.531494,834.133911 
	C1024.531494,830.198242 1024.531494,827.117615 1024.531494,823.795166 
	C1002.974976,823.795166 981.712585,823.795166 960.310730,823.795166 
	C960.310730,827.256592 960.310730,830.475342 960.310730,834.215393 
	C969.014832,834.215393 977.413208,834.215393 986.133911,834.215393 
	C986.133911,851.345398 986.133911,867.948608 986.133911,884.596375 
	C990.515869,884.596375 994.537476,884.596375 999.022095,884.596375 
	C999.022095,867.716003 999.022095,851.242188 999.748352,834.133911 
M1034.151123,847.498901 
	C1034.151123,853.428101 1034.151123,859.357300 1034.151123,865.504761 
	C1038.626709,865.504761 1042.494751,865.504761 1046.478882,865.504761 
	C1046.478882,850.813477 1046.478882,836.470459 1046.478882,822.217163 
	C1042.224487,822.217163 1038.348633,822.217163 1034.151123,822.217163 
	C1034.151123,830.594421 1034.151123,838.546814 1034.151123,847.498901 
M1033.422852,875.013550 
	C1033.422852,878.238098 1033.422852,881.462646 1033.422852,884.705566 
	C1038.374146,884.705566 1042.907471,884.705566 1047.567139,884.705566 
	C1047.567139,881.163574 1047.567139,877.948914 1047.567139,874.391235 
	C1042.887573,874.391235 1038.487793,874.391235 1033.422852,875.013550 
z"/>
<path fill="#3947AA" opacity="1.000000" stroke="none" 
	d="
M560.574585,174.909760 
	C553.805298,182.999695 546.131470,190.688400 539.462341,199.167328 
	C528.269470,213.397583 517.110718,227.724930 507.037201,242.748688 
	C492.310211,264.712585 481.507080,288.668365 474.088928,314.120209 
	C468.617645,332.892426 465.060120,352.006683 464.040253,371.509674 
	C463.050293,390.440552 462.411102,409.398285 462.075500,428.352356 
	C461.748779,446.807983 462.264832,465.278564 461.936310,483.734161 
	C461.490814,508.762299 458.231812,533.484131 452.493896,557.857361 
	C445.432251,587.853455 434.442627,616.382019 420.163177,643.661072 
	C403.656555,675.195007 384.317932,704.912048 361.310272,732.052795 
	C346.047424,750.057373 330.387848,767.833008 313.668701,784.467651 
	C293.748413,804.287231 272.495636,822.766418 249.496277,839.077576 
	C248.556351,839.744141 247.512878,840.264709 246.171631,840.939331 
	C245.720749,838.870300 245.524170,836.715271 245.523972,834.560181 
	C245.509293,669.269226 245.534775,503.978241 245.486862,338.687286 
	C245.478317,309.201965 245.135910,279.716858 245.015015,250.231354 
	C244.949326,234.213394 250.517426,226.739670 266.436554,223.054733 
	C297.864685,215.779785 329.299286,208.475571 360.905365,202.038681 
	C417.207245,190.572220 474.100067,182.907364 531.257385,177.194199 
	C540.860535,176.234329 550.499390,175.631531 560.574585,174.909760 
z"/>
<path fill="#3947AA" opacity="1.000000" stroke="none" 
	d="
M1040.465698,1230.399170 
	C1047.436035,1201.639526 1055.050903,1172.836792 1062.029297,1143.880493 
	C1070.821289,1107.397949 1080.913818,1071.391357 1098.137329,1037.821167 
	C1109.337158,1015.991638 1122.966309,995.699707 1138.186646,976.477417 
	C1139.494263,974.826111 1141.322876,973.587402 1143.267578,972.055908 
	C1143.750000,990.101746 1143.946777,1008.248596 1143.984985,1026.395752 
	C1144.081299,1072.196167 1143.882812,1117.998657 1144.297119,1163.795776 
	C1144.419922,1177.355713 1139.061035,1185.857666 1126.617065,1191.319946 
	C1097.859619,1203.942871 1069.404907,1217.255249 1040.465698,1230.399170 
z"/>
<path fill="#F8F8FD" opacity="1.000000" stroke="none" 
	d="
M881.000000,1034.018311 
	C746.691467,1034.018311 612.882996,1034.018677 479.074493,1034.012573 
	C477.076721,1034.012451 475.034912,1034.177124 473.090668,1033.831665 
	C469.501892,1033.193848 467.540466,1030.946289 467.772858,1027.172729 
	C467.991913,1023.615601 470.046844,1021.778259 473.524109,1021.489319 
	C474.683136,1021.393005 475.855713,1021.453064 477.022095,1021.453064 
	C621.995178,1021.451904 766.968323,1021.451965 911.941406,1021.452515 
	C912.941223,1021.452515 913.941101,1021.473694 914.940796,1021.462830 
	C919.124695,1021.417419 921.828003,1023.435791 921.843201,1027.623657 
	C921.858337,1031.805908 919.060242,1033.942627 914.993469,1033.976318 
	C903.829651,1034.068848 892.664551,1034.014526 881.000000,1034.018311 
z"/>
<path fill="#FCFCFD" opacity="1.000000" stroke="none" 
	d="
M631.824829,503.204651 
	C627.862671,499.615387 624.247742,496.171326 620.497864,492.881165 
	C613.091309,486.382812 608.771545,486.155304 601.098816,492.137146 
	C597.035767,495.304840 593.372742,498.980408 589.380493,502.244904 
	C573.847717,514.946289 553.018127,512.444824 540.868652,496.475494 
	C538.475464,493.329834 536.174561,489.987030 539.516724,486.230042 
	C542.216431,483.195282 549.033875,483.246155 552.448181,486.119904 
	C554.354370,487.724274 555.960449,489.693085 557.904907,491.242889 
	C564.823364,496.757233 571.778503,496.921661 578.921631,491.532410 
	C583.035156,488.428864 586.811340,484.881256 590.783691,481.587067 
	C605.072021,469.738159 618.157471,469.961914 631.897522,482.272522 
	C634.749207,484.827545 637.525391,487.468109 640.408325,489.986908 
	C648.473083,497.032990 655.807373,497.111481 664.118591,490.207153 
	C667.959656,487.016296 671.534180,483.486206 675.505615,480.473846 
	C690.046875,469.444031 702.395813,470.080322 715.871948,482.332855 
	C719.072998,485.243195 722.157043,488.298248 725.509827,491.022217 
	C732.297485,496.536896 738.478149,496.746765 745.547974,491.559662 
	C749.295349,488.810181 752.697571,485.586609 756.225525,482.542114 
	C771.173645,469.641998 784.559021,469.673065 799.407104,482.700989 
	C802.534119,485.444672 805.435303,488.461243 808.679504,491.052826 
	C816.036438,496.929749 823.089661,496.908813 830.482788,491.036743 
	C833.475769,488.659607 836.134277,485.865753 839.068848,483.409576 
	C843.212646,479.941254 846.896240,480.030731 850.087280,483.482910 
	C853.215820,486.867462 853.081970,490.666595 849.095154,494.405914 
	C844.980286,498.265350 840.743408,502.105591 836.086975,505.254974 
	C824.124390,513.345886 809.240723,512.291565 798.161316,502.918671 
	C793.713928,499.156311 789.553894,495.045105 785.011841,491.406158 
	C778.995056,486.585663 774.438904,486.635010 768.343506,491.434601 
	C764.818970,494.209869 761.565857,497.330902 758.203674,500.311035 
	C742.714783,514.039856 726.642761,513.901550 711.397766,499.942017 
	C708.084961,496.908508 704.836426,493.768036 701.268738,491.058136 
	C695.807434,486.909851 691.766296,486.845825 686.239746,490.993958 
	C681.991638,494.182526 678.216492,497.992981 674.118774,501.391663 
	C660.285706,512.864807 646.570251,513.498108 631.824829,503.204651 
z"/>
<path fill="#FCFCFD" opacity="1.000000" stroke="none" 
	d="
M800.150269,567.909546 
	C796.077881,564.453430 792.307800,561.188599 788.581726,557.874390 
	C779.717285,549.989990 774.318481,549.936646 765.494629,557.691284 
	C761.619995,561.096436 757.974976,564.815918 753.826782,567.846680 
	C741.435547,576.900146 727.665100,576.655273 715.557556,567.203857 
	C710.841370,563.522339 706.649902,559.175232 702.013855,555.382507 
	C696.201050,550.627075 692.355225,550.454285 686.263855,554.960510 
	C682.131226,558.017639 678.438110,561.669617 674.552795,565.060486 
	C659.744507,577.984253 643.361328,577.830750 628.781006,564.651306 
	C625.200623,561.414978 621.744446,558.006104 617.921082,555.081970 
	C612.473389,550.915588 609.012329,550.792725 603.365540,554.789185 
	C597.665344,558.823364 592.401489,563.468384 586.788757,567.633057 
	C578.121948,574.063904 568.575439,576.402405 558.045959,572.997986 
	C550.841492,570.668701 544.998718,566.428833 540.771606,560.102722 
	C538.227539,556.295410 538.285095,550.432190 541.255188,548.683777 
	C545.063354,546.442017 548.938843,547.265686 552.364319,550.013733 
	C552.881897,550.428955 553.328613,550.932739 553.807251,551.396423 
	C564.731689,561.979919 571.603577,562.066528 583.003479,551.801758 
	C586.095703,549.017395 589.086182,546.086609 592.394836,543.581726 
	C604.483215,534.429688 616.607727,534.518616 628.547241,543.869324 
	C632.604431,547.046814 636.220032,550.784607 640.243347,554.009521 
	C648.838196,560.898804 655.568970,560.797729 664.034912,553.868958 
	C668.544617,550.178101 672.826416,546.181824 677.526306,542.755676 
	C689.140625,534.288940 699.513550,534.452026 710.924316,543.265442 
	C715.395203,546.718689 719.385193,550.787048 723.728149,554.414978 
	C731.803955,561.161133 738.370972,561.163696 746.562744,554.439819 
	C751.575745,550.325134 756.204285,545.700806 761.445129,541.913818 
	C771.306335,534.788208 781.667969,534.721069 791.619995,541.706848 
	C796.635376,545.227356 801.067932,549.579590 805.752869,553.568909 
	C814.718628,561.203369 821.573181,561.252991 830.688171,553.707336 
	C833.381531,551.477722 835.982178,549.132812 838.725708,546.968018 
	C841.582581,544.713806 844.888123,543.659363 847.741028,546.525818 
	C850.721069,549.519958 851.383118,553.768494 848.838806,557.028137 
	C841.911072,565.903748 833.319092,572.142944 821.667542,574.145630 
	C813.251404,575.592163 807.300964,570.854492 800.150269,567.909546 
z"/>
<path fill="#FCFCFE" opacity="1.000000" stroke="none" 
	d="
M741.245972,367.581360 
	C745.395203,364.465393 749.238892,361.574585 752.991394,358.569733 
	C755.587036,356.491211 757.902954,354.037323 760.609619,352.127808 
	C772.149963,343.986267 783.409302,343.981903 794.753235,352.349335 
	C799.020630,355.496979 802.732544,359.389893 806.767273,362.862244 
	C815.932861,370.750244 822.708557,370.729309 831.997803,362.873138 
	C834.791443,360.510406 837.480103,358.004059 840.420044,355.839447 
	C843.023132,353.922821 846.563049,352.970734 848.355896,356.081055 
	C849.905457,358.769379 851.204590,363.255249 849.997803,365.599670 
	C844.044250,377.166321 827.719482,385.195099 815.422119,382.883728 
	C806.040405,381.120361 798.184937,376.070038 791.323792,369.492584 
	C780.096863,358.729858 777.112183,358.602600 765.283997,368.546204 
	C758.420044,374.316528 752.022034,380.730652 742.888000,383.048309 
	C732.658264,385.644073 723.779297,382.821960 715.863831,376.418793 
	C711.470093,372.864532 707.539368,368.737640 703.143616,365.186005 
	C696.752380,360.022034 692.135071,360.001404 685.613831,365.026031 
	C682.327148,367.558441 679.377991,370.530334 676.289612,373.318420 
	C660.606873,387.476349 643.668640,387.355652 628.155701,373.042664 
	C624.735352,369.886841 621.202820,366.842377 617.594849,363.902618 
	C612.967224,360.132019 608.121033,360.149872 603.452026,363.804901 
	C599.657471,366.775330 595.985229,369.909271 592.355103,373.080872 
	C586.745605,377.981842 580.565796,381.601654 573.115784,383.036407 
	C558.810730,385.791351 548.476318,379.307465 540.447754,368.555450 
	C538.891052,366.470673 539.523499,361.905762 540.564758,358.991852 
	C541.409973,356.626495 549.509033,357.335938 552.041016,359.531311 
	C554.423828,361.597382 556.641907,363.889557 559.194214,365.716553 
	C564.844116,369.760742 570.784363,369.699310 576.380127,365.724152 
	C580.574890,362.744171 584.454712,359.310028 588.392212,355.980469 
	C603.992310,342.789093 615.834229,342.785309 631.452087,356.067108 
	C634.495789,358.655487 637.394470,361.416443 640.470825,363.964020 
	C647.972961,370.176544 654.947693,370.290924 662.595947,364.182587 
	C666.884888,360.757172 670.814453,356.879608 675.125183,353.484131 
	C688.008789,343.336060 700.060791,343.471130 712.734619,353.855865 
	C717.110107,357.441040 721.190125,361.387115 725.569519,364.967224 
	C730.100525,368.671326 735.169495,370.248871 741.245972,367.581360 
z"/>
<path fill="#FCFCFD" opacity="1.000000" stroke="none" 
	d="
M612.373352,409.817871 
	C619.594055,410.550629 624.880371,414.238312 629.792053,418.612518 
	C633.274536,421.713959 636.546082,425.067963 640.161987,428.000641 
	C647.039795,433.578827 654.138611,433.734985 661.176453,428.396606 
	C665.814270,424.878632 670.015015,420.784454 674.651672,417.264771 
	C688.390564,406.835541 701.144226,407.590668 713.748291,419.347137 
	C717.035156,422.412872 720.194153,425.646149 723.702332,428.437469 
	C730.651306,433.966431 737.117615,433.963715 744.163330,428.475067 
	C747.966614,425.512329 751.423340,422.109314 755.121277,419.006012 
	C769.969849,406.544861 782.462952,406.666840 797.009583,419.402863 
	C800.140747,422.144257 803.075989,425.115112 806.271423,427.776154 
	C813.372437,433.689697 820.850891,433.682037 828.038269,427.827026 
	C830.873901,425.517029 833.231567,422.256256 836.431519,420.865936 
	C839.292786,419.622772 843.157410,419.756226 846.285461,420.506836 
	C847.583374,420.818298 848.270203,424.266785 848.920532,426.385193 
	C849.168701,427.193665 848.724304,428.371490 848.278259,429.212860 
	C841.348999,442.284515 822.730896,450.568390 809.338074,445.702087 
	C803.879822,443.718811 799.070557,439.746338 794.245605,436.288788 
	C790.472900,433.585358 787.236267,430.146210 783.570740,427.277679 
	C779.411621,424.022919 774.915039,423.894806 770.676514,427.120056 
	C766.705994,430.141327 762.903381,433.390503 759.110779,436.637360 
	C742.972717,450.453278 728.982666,450.636108 712.639648,437.162109 
	C709.042297,434.196350 705.593262,431.043793 701.913452,428.186584 
	C695.767212,423.414276 691.889160,423.229553 685.661926,427.779877 
	C681.642883,430.716583 677.993286,434.164642 674.223389,437.435699 
	C659.273804,450.407410 643.304016,450.425140 628.352539,437.424652 
	C624.960205,434.475006 621.793701,431.247803 618.266663,428.474731 
	C611.889343,423.460602 607.479126,423.429199 601.155945,428.403015 
	C596.842773,431.795746 592.872375,435.620605 588.675232,439.165131 
	C571.346191,453.799591 551.079163,446.976654 538.585327,430.974182 
	C536.164978,427.874176 537.003357,424.606323 539.561035,421.919769 
	C542.199097,419.148743 545.407654,418.681152 548.577515,420.911926 
	C550.876953,422.530121 552.922974,424.520844 555.015137,426.419067 
	C563.341064,433.973328 570.742493,434.133057 579.465210,426.901886 
	C584.078918,423.077057 588.546021,419.055725 593.343323,415.476929 
	C598.802673,411.404236 604.924194,408.942322 612.373352,409.817871 
z"/>
<path fill="#FCFCFE" opacity="1.000000" stroke="none" 
	d="
M550.005249,854.235107 
	C550.005249,864.648926 550.005249,874.596558 550.005249,884.771606 
	C545.611755,884.771606 541.697083,884.771606 537.477661,884.771606 
	C537.477661,864.497925 537.477661,844.411133 537.477661,823.565125 
	C541.037720,823.565125 544.676331,823.257935 548.216248,823.715454 
	C549.646118,823.900208 551.228027,825.518372 552.115112,826.889160 
	C561.155090,840.857788 570.063354,854.911560 579.016907,868.936218 
	C579.974182,870.435791 580.984619,871.901306 582.288696,873.860779 
	C591.536072,859.452698 600.991089,845.942871 609.063965,831.652222 
	C613.414673,823.950562 618.716553,822.161377 626.816528,824.122131 
	C626.816528,844.118103 626.816528,864.304321 626.816528,884.749512 
	C622.964478,884.749512 619.213806,884.749512 615.015869,884.749512 
	C615.015869,872.414124 615.015869,860.174011 615.015869,846.452148 
	C613.375061,848.395874 612.532227,849.202209 611.914978,850.154846 
	C605.128784,860.628174 598.295471,871.072876 591.676270,881.651306 
	C590.068237,884.221191 588.310852,885.451782 585.271240,885.049255 
	C583.470642,884.810791 581.588745,884.818176 579.785461,885.046570 
	C576.373535,885.478638 574.463562,884.070923 572.639099,881.142456 
	C565.607849,869.856506 558.238708,858.780945 550.005188,847.693054 
	C550.005188,849.718384 550.005188,851.743652 550.005249,854.235107 
z"/>
<path fill="#FDFDFE" opacity="1.000000" stroke="none" 
	d="
M521.833191,1179.773193 
	C519.445618,1181.028442 517.410522,1182.159424 515.313477,1183.160522 
	C511.016296,1185.211914 509.418030,1184.143433 510.018463,1179.321777 
	C510.633820,1174.380249 511.423462,1169.438599 512.534058,1164.587891 
	C513.366577,1160.951904 512.744080,1158.201294 509.892609,1155.676147 
	C506.162140,1152.372681 502.598938,1148.860962 499.183258,1145.232178 
	C498.065247,1144.044434 497.068420,1142.190430 497.124451,1140.682373 
	C497.152435,1139.929077 499.609863,1138.901123 501.084320,1138.631836 
	C506.473999,1137.647583 511.970093,1137.185059 517.302124,1135.978149 
	C519.249939,1135.537231 521.467529,1133.934814 522.491516,1132.222046 
	C525.210876,1127.673706 527.246216,1122.722046 529.774536,1118.050293 
	C530.569153,1116.581909 532.064941,1115.493042 533.239868,1114.230591 
	C534.469360,1115.411865 536.076660,1116.386108 536.858765,1117.812744 
	C539.411682,1122.469727 541.404602,1127.449219 544.157959,1131.973145 
	C545.269958,1133.800049 547.620361,1135.495483 549.704895,1135.986450 
	C555.025513,1137.239380 560.533936,1137.672119 565.921082,1138.679810 
	C567.357605,1138.948608 569.502258,1139.896973 569.744141,1140.910156 
	C570.020752,1142.069214 568.810974,1143.908325 567.771118,1144.997437 
	C564.213135,1148.723877 560.608215,1152.439453 556.704590,1155.790405 
	C553.908875,1158.190430 553.411316,1160.820923 554.109314,1164.164795 
	C555.126770,1169.039185 556.064331,1173.937622 556.779602,1178.863037 
	C556.998962,1180.373901 556.827026,1183.009644 556.042358,1183.360840 
	C554.692200,1183.965088 552.556519,1183.558716 551.043274,1182.901978 
	C547.700806,1181.451660 544.253967,1179.963989 541.366882,1177.801147 
	C535.776001,1173.612793 530.598511,1173.706543 525.242126,1177.978760 
	C524.351807,1178.688843 523.192627,1179.061646 521.833191,1179.773193 
z"/>
<path fill="#FCFCFE" opacity="1.000000" stroke="none" 
	d="
M879.394531,1178.560181 
	C873.106934,1173.459839 867.260681,1173.844727 861.142822,1178.331665 
	C858.357483,1180.374268 855.064514,1181.766479 851.905029,1183.247070 
	C847.767578,1185.186157 846.209961,1184.122437 846.795471,1179.670898 
	C847.489624,1174.393066 848.213379,1169.092407 849.425598,1163.919067 
	C850.227966,1160.495117 849.273376,1158.203491 846.849670,1155.964111 
	C843.058228,1152.460815 839.364807,1148.842041 835.796448,1145.112915 
	C834.749146,1144.018188 833.312012,1141.764771 833.725464,1141.127930 
	C834.546509,1139.863403 836.445740,1138.924561 838.048218,1138.610840 
	C843.105774,1137.619995 848.210693,1136.725220 853.339355,1136.292969 
	C856.866516,1135.995972 858.669739,1134.231934 860.026794,1131.271973 
	C862.105408,1126.738403 864.268921,1122.233154 866.656799,1117.858032 
	C867.442444,1116.418579 869.035767,1115.419922 870.259827,1114.219727 
	C871.467285,1115.470093 873.024231,1116.532349 873.817688,1118.005737 
	C876.340088,1122.689697 878.342896,1127.666016 881.047546,1132.232788 
	C882.060730,1133.943481 884.295044,1135.535889 886.243591,1135.972534 
	C891.751770,1137.206543 897.415161,1137.731934 902.982910,1138.728760 
	C904.317627,1138.967896 906.524658,1139.898438 906.565186,1140.611206 
	C906.642822,1141.977661 905.755920,1143.701904 904.738220,1144.773193 
	C901.068970,1148.635742 897.266541,1152.384277 893.338562,1155.984131 
	C891.051697,1158.079956 890.052551,1160.131226 890.834534,1163.382568 
	C892.077148,1168.549805 892.862061,1173.838867 893.588318,1179.111084 
	C893.790344,1180.578247 893.595947,1182.882446 892.690247,1183.506592 
	C891.723755,1184.172852 889.563721,1183.628296 888.166016,1183.039551 
	C885.261475,1181.815918 882.516357,1180.213745 879.394531,1178.560181 
z"/>
<path fill="#FCFDFE" opacity="1.000000" stroke="none" 
	d="
M680.310852,1167.249878 
	C682.062073,1161.747437 681.333984,1157.603271 676.688293,1154.136963 
	C673.251526,1151.572632 670.351685,1148.253418 667.396179,1145.098511 
	C666.350708,1143.982544 664.891235,1141.783081 665.306946,1141.090820 
	C666.058594,1139.838989 667.996399,1138.921387 669.582886,1138.618408 
	C674.804626,1137.621216 680.173096,1137.293457 685.313538,1136.016968 
	C687.500183,1135.473755 689.894409,1133.605469 691.089294,1131.660522 
	C693.949341,1127.005127 696.062256,1121.898071 698.651978,1117.067139 
	C700.731079,1113.188843 702.943542,1113.171875 704.978271,1117.039551 
	C707.529236,1121.888550 709.552307,1127.038330 712.386047,1131.704346 
	C713.570557,1133.655029 716.069031,1135.454468 718.293579,1135.997681 
	C723.601562,1137.294189 729.118286,1137.713379 734.513245,1138.692749 
	C735.828918,1138.931641 737.926575,1139.847168 738.029236,1140.658447 
	C738.199280,1142.002563 737.384033,1143.836548 736.383057,1144.897583 
	C732.845947,1148.646729 729.230103,1152.363892 725.298584,1155.683960 
	C722.534363,1158.018433 721.612854,1160.265625 722.496887,1163.882568 
	C723.756165,1169.035034 724.454102,1174.337769 725.167297,1179.606689 
	C725.775757,1184.101807 724.251343,1185.235107 720.182068,1183.276001 
	C715.244080,1180.898682 710.309570,1178.458252 705.628296,1175.624390 
	C702.787476,1173.904663 700.578857,1174.105835 697.844482,1175.677856 
	C693.094543,1178.408325 688.195496,1180.895142 683.254028,1183.265503 
	C682.065796,1183.835327 680.014771,1184.133423 679.181213,1183.491211 
	C678.330017,1182.835571 678.114502,1180.824585 678.275085,1179.485352 
	C678.749451,1175.528564 679.547241,1171.610352 680.310852,1167.249878 
z"/>
<path fill="#FDFDFE" opacity="1.000000" stroke="none" 
	d="
M754.269287,1147.715088 
	C752.445679,1145.276489 750.886414,1143.075317 749.327148,1140.874146 
	C751.832336,1139.937256 754.269897,1138.487915 756.853821,1138.146606 
	C773.758423,1135.913208 773.699829,1135.958252 781.128784,1120.558105 
	C782.262573,1118.207764 784.372009,1116.328125 786.030273,1114.230713 
	C787.610229,1116.223755 789.211304,1118.200317 790.755493,1120.220581 
	C791.151794,1120.739136 791.370361,1121.394165 791.667236,1121.988037 
	C798.737732,1136.132935 798.737549,1136.133423 814.335754,1137.972168 
	C815.161438,1138.069580 816.045349,1137.991577 816.805420,1138.264648 
	C818.743408,1138.960815 820.626526,1139.809692 822.531494,1140.597534 
	C821.426086,1142.465332 820.432861,1144.413330 819.176392,1146.173462 
	C818.318604,1147.375122 817.242615,1148.548950 816.008728,1149.333618 
	C806.388000,1155.451660 805.014160,1163.865967 808.390320,1174.101074 
	C809.347168,1177.001831 808.684814,1180.436768 808.765015,1183.626709 
	C805.728333,1182.711182 802.134827,1182.537231 799.753357,1180.749146 
	C790.499023,1173.800537 781.742737,1173.474976 772.431152,1180.642944 
	C770.043030,1182.481323 766.455444,1182.761475 763.418945,1183.757690 
	C763.381165,1180.594238 762.409119,1177.069824 763.468140,1174.330322 
	C767.915833,1162.824097 763.709106,1154.640381 754.269287,1147.715088 
z"/>
<path fill="#FDFDFE" opacity="1.000000" stroke="none" 
	d="
M610.313110,1125.321899 
	C611.879333,1122.161499 613.110840,1119.237915 614.692810,1116.518188 
	C616.591614,1113.253662 618.716736,1113.265503 620.521240,1116.636719 
	C623.184265,1121.611694 625.271545,1126.914429 628.180908,1131.728882 
	C629.357056,1133.675171 631.869446,1135.454956 634.094360,1135.998901 
	C639.399658,1137.296021 644.912354,1137.722168 650.303101,1138.708740 
	C651.615173,1138.948730 653.710144,1139.887207 653.803223,1140.693970 
	C653.959045,1142.044189 653.131836,1143.867798 652.124390,1144.927734 
	C648.461304,1148.781860 644.742981,1152.630737 640.669312,1156.031128 
	C637.891541,1158.349854 637.654846,1160.807251 638.289307,1163.967041 
	C639.335327,1169.176758 640.324707,1174.411133 640.999573,1179.678345 
	C641.565796,1184.097778 639.881653,1185.213379 635.824707,1183.221313 
	C630.758667,1180.733887 625.906860,1177.787476 620.753906,1175.511719 
	C618.959290,1174.719116 616.246643,1174.653687 614.467712,1175.432007 
	C609.306763,1177.689697 604.445435,1180.622925 599.376221,1183.106689 
	C598.160522,1183.702515 595.941711,1184.239014 595.339600,1183.640503 
	C594.398438,1182.704956 593.969666,1180.716553 594.156006,1179.282471 
	C594.776001,1174.510742 595.565796,1169.739502 596.675537,1165.059326 
	C597.667480,1160.875610 596.745544,1157.735474 593.416443,1154.922729 
	C589.995667,1152.032593 586.826599,1148.815430 583.781128,1145.525024 
	C582.548279,1144.192993 581.934204,1142.288086 581.038513,1140.643921 
	C582.765320,1139.881714 584.425781,1138.780396 586.232483,1138.427124 
	C590.140503,1137.663330 594.109131,1137.051025 598.079590,1136.803711 
	C603.264771,1136.480957 606.874756,1134.428955 608.402710,1129.233398 
	C608.772034,1127.977539 609.545898,1126.840576 610.313110,1125.321899 
z"/>
<path fill="#FBFBFD" opacity="1.000000" stroke="none" 
	d="
M795.936768,837.442749 
	C796.037659,847.244873 794.504395,849.212219 783.282471,853.813843 
	C784.852051,854.248779 786.102478,854.614136 787.362793,854.941223 
	C792.667053,856.317505 797.003052,858.825317 798.038513,864.751404 
	C799.275574,871.831665 796.860352,877.890442 790.874939,880.883606 
	C787.088074,882.777222 782.747375,884.451538 778.603577,884.581543 
	C764.343018,885.029053 750.059814,884.753601 735.478149,884.753601 
	C735.478149,864.524963 735.478149,844.457397 735.478149,823.913818 
	C736.818542,823.793640 738.242554,823.558594 739.667114,823.555176 
	C750.817139,823.528198 761.970459,823.398254 773.115906,823.628601 
	C777.060242,823.710083 781.103271,824.293030 784.892517,825.376587 
	C790.681702,827.032227 794.795166,830.718384 795.936768,837.442749 
M747.998230,862.664612 
	C747.998230,866.447754 747.998230,870.230835 747.998230,874.032227 
	C758.348145,874.032227 768.272522,874.369690 778.157410,873.891541 
	C783.184448,873.648315 785.684814,870.229919 785.373169,866.036804 
	C785.019348,861.277161 781.609314,860.085266 777.692322,860.008667 
	C768.730530,859.833435 759.763977,859.814087 750.801086,859.903503 
	C749.866943,859.912842 748.944397,861.076355 747.998230,862.664612 
M777.687622,848.549133 
	C781.552368,847.235474 783.215149,844.501343 782.763489,840.498352 
	C782.307861,836.461060 779.304504,834.555054 775.918030,834.425720 
	C766.727417,834.074768 757.514648,834.305298 748.331360,834.305298 
	C748.331360,839.405701 748.331360,844.281616 748.331360,849.566284 
	C755.441895,849.566284 762.222046,849.635010 768.999573,849.531799 
	C771.640259,849.491577 774.275024,849.064209 777.687622,848.549133 
z"/>
<path fill="#FBFCFD" opacity="1.000000" stroke="none" 
	d="
M875.008850,830.958984 
	C893.115173,848.983032 886.377075,876.996094 862.237305,883.997742 
	C848.963501,887.847717 835.536560,887.592590 822.821167,881.227539 
	C812.036743,875.829163 807.246521,866.603699 807.033264,854.880066 
	C806.820679,843.191650 810.900146,833.117798 821.680298,827.890442 
	C839.620239,819.191223 857.612671,819.263733 875.008850,830.958984 
M834.512085,834.852234 
	C824.167847,838.493774 819.646179,844.891907 820.005310,855.379395 
	C820.330200,864.868958 825.704529,871.390137 835.754822,873.972168 
	C843.461365,875.952026 851.219238,875.937988 858.785522,873.153442 
	C867.341370,870.004639 871.853210,863.266174 871.806396,853.958130 
	C871.760925,844.934937 866.855469,837.982361 858.295410,835.071655 
	C850.696655,832.487671 842.999817,832.357727 834.512085,834.852234 
z"/>
<path fill="#FBFCFD" opacity="1.000000" stroke="none" 
	d="
M341.657715,840.798706 
	C346.560852,830.339539 355.218414,825.469849 365.579712,823.320862 
	C374.978516,821.371521 384.460571,821.567139 393.777405,824.130127 
	C408.304718,828.126465 416.680847,838.778809 417.003967,853.498840 
	C417.328674,868.290222 409.582214,879.265198 395.120697,883.818787 
	C384.565918,887.142273 373.737762,887.250610 363.078339,884.434631 
	C342.788788,879.074463 334.159302,861.516663 341.657715,840.798706 
M394.080536,871.751160 
	C402.413361,866.687683 404.809937,859.067322 403.286652,849.904114 
	C401.742401,840.614624 395.384521,836.107361 386.837067,834.069275 
	C379.554993,832.332947 372.309082,832.706909 365.245514,835.203369 
	C356.740906,838.209045 352.152527,844.716736 352.003662,853.712280 
	C351.846893,863.185486 356.038483,869.865662 364.774353,872.982910 
	C374.350861,876.400085 383.978973,876.292419 394.080536,871.751160 
z"/>
<path fill="#FCFCFE" opacity="1.000000" stroke="none" 
	d="
M429.176514,851.999878 
	C429.176514,842.381592 429.176514,833.263367 429.176514,823.846924 
	C433.556305,823.846924 437.481323,823.846924 441.895233,823.846924 
	C441.895233,832.022949 441.895233,840.094482 441.895233,848.482056 
	C457.089752,848.482056 471.803070,848.482056 487.066284,848.482056 
	C487.066284,840.283325 487.066284,832.216736 487.066284,823.853516 
	C491.536407,823.853516 495.461487,823.853516 499.699463,823.853516 
	C499.699463,844.152954 499.699463,864.343384 499.699463,884.770752 
	C495.616852,884.770752 491.703125,884.770752 487.174835,884.770752 
	C487.174835,876.387756 487.174835,868.159485 487.174835,859.703796 
	C471.963257,859.703796 457.363281,859.703796 442.213379,859.703796 
	C442.213379,867.965271 442.213379,876.185486 442.213379,884.701538 
	C437.759705,884.701538 433.840668,884.701538 429.176514,884.701538 
	C429.176514,874.005127 429.176514,863.252502 429.176514,851.999878 
z"/>
<path fill="#FCFCFE" opacity="1.000000" stroke="none" 
	d="
M961.091064,879.906738 
	C961.835266,881.599365 962.424561,882.934509 963.336975,885.001770 
	C959.195862,885.001770 955.577515,885.348816 952.084595,884.838135 
	C950.599426,884.620972 948.542480,882.821228 948.172119,881.375244 
	C945.958313,872.732849 940.637878,870.101318 932.088013,871.315125 
	C926.706055,872.079346 921.121521,871.609863 915.639160,871.399658 
	C912.537842,871.280701 910.943359,872.345459 909.650391,875.258545 
	C904.806274,886.171814 904.683167,886.117188 891.868530,884.542908 
	C894.800110,878.274963 897.657898,872.145203 900.532410,866.023438 
	C906.603027,853.094971 912.734985,840.194946 918.712585,827.223633 
	C919.873047,824.705444 921.241028,823.763611 924.183777,823.379639 
	C931.693848,822.399536 935.649475,825.039368 938.701233,832.197083 
	C945.535706,848.227173 953.457275,863.793884 961.091064,879.906738 
M917.411255,858.339355 
	C917.974548,859.227234 918.515198,860.869202 919.104553,860.886902 
	C925.339966,861.074219 931.583191,861.003052 938.700195,861.003052 
	C934.874268,852.566956 931.359192,844.816162 927.459900,836.218262 
	C923.995605,843.850830 920.876526,850.722839 917.411255,858.339355 
z"/>
<path fill="#FCFCFE" opacity="1.000000" stroke="none" 
	d="
M663.807983,879.901001 
	C665.237610,869.645081 662.145935,861.417114 656.291138,853.554871 
	C650.349487,845.576172 645.397583,836.859375 640.037109,828.449951 
	C639.183105,827.110168 638.459534,825.687256 637.260315,823.569275 
	C641.911438,823.569275 645.883606,823.278748 649.771729,823.723267 
	C651.176208,823.883850 652.736267,825.579651 653.615967,826.962524 
	C659.137024,835.641479 664.486023,844.429871 670.343140,853.912659 
	C675.056641,846.239990 679.446228,839.151001 683.779175,832.027527 
	C689.586548,822.479919 690.782288,821.957520 703.058716,824.237061 
	C699.605225,829.661255 696.256775,834.928711 692.898987,840.190247 
	C691.647461,842.151367 690.402283,844.117493 689.106262,846.049133 
	C681.334290,857.632629 672.222168,868.755432 677.317322,884.652588 
	C672.231689,884.652588 668.356201,884.652588 664.108643,884.652588 
	C664.010071,883.255127 663.909058,881.822144 663.807983,879.901001 
z"/>
<path fill="#FDFDFE" opacity="1.000000" stroke="none" 
	d="
M999.385254,834.451172 
	C999.022095,851.242188 999.022095,867.716003 999.022095,884.596375 
	C994.537476,884.596375 990.515869,884.596375 986.133911,884.596375 
	C986.133911,867.948608 986.133911,851.345398 986.133911,834.215393 
	C977.413208,834.215393 969.014832,834.215393 960.310730,834.215393 
	C960.310730,830.475342 960.310730,827.256592 960.310730,823.795166 
	C981.712585,823.795166 1002.974976,823.795166 1024.531494,823.795166 
	C1024.531494,827.117615 1024.531494,830.198242 1024.531494,834.133911 
	C1016.262695,834.133911 1008.005554,834.133911 999.385254,834.451172 
z"/>
<path fill="#F6F6FC" opacity="1.000000" stroke="none" 
	d="
M1034.151123,846.999084 
	C1034.151123,838.546814 1034.151123,830.594421 1034.151123,822.217163 
	C1038.348633,822.217163 1042.224487,822.217163 1046.478882,822.217163 
	C1046.478882,836.470459 1046.478882,850.813477 1046.478882,865.504761 
	C1042.494751,865.504761 1038.626709,865.504761 1034.151123,865.504761 
	C1034.151123,859.357300 1034.151123,853.428101 1034.151123,846.999084 
z"/>
<path fill="#F4F4FB" opacity="1.000000" stroke="none" 
	d="
M1033.755493,874.702393 
	C1038.487793,874.391235 1042.887573,874.391235 1047.567139,874.391235 
	C1047.567139,877.948914 1047.567139,881.163574 1047.567139,884.705566 
	C1042.907471,884.705566 1038.374146,884.705566 1033.422852,884.705566 
	C1033.422852,881.462646 1033.422852,878.238098 1033.755493,874.702393 
z"/>
<path fill="#484DBF" opacity="1.000000" stroke="none" 
	d="
M748.007324,862.184448 
	C748.944397,861.076355 749.866943,859.912842 750.801086,859.903503 
	C759.763977,859.814087 768.730530,859.833435 777.692322,860.008667 
	C781.609314,860.085266 785.019348,861.277161 785.373169,866.036804 
	C785.684814,870.229919 783.184448,873.648315 778.157410,873.891541 
	C768.272522,874.369690 758.348145,874.032227 747.998230,874.032227 
	C747.998230,870.230835 747.998230,866.447754 748.007324,862.184448 
z"/>
<path fill="#484DBF" opacity="1.000000" stroke="none" 
	d="
M777.300049,848.681152 
	C774.275024,849.064209 771.640259,849.491577 768.999573,849.531799 
	C762.222046,849.635010 755.441895,849.566284 748.331360,849.566284 
	C748.331360,844.281616 748.331360,839.405701 748.331360,834.305298 
	C757.514648,834.305298 766.727417,834.074768 775.918030,834.425720 
	C779.304504,834.555054 782.307861,836.461060 782.763489,840.498352 
	C783.215149,844.501343 781.552368,847.235474 777.300049,848.681152 
z"/>
<path fill="#454ABE" opacity="1.000000" stroke="none" 
	d="
M834.893799,834.716064 
	C842.999817,832.357727 850.696655,832.487671 858.295410,835.071655 
	C866.855469,837.982361 871.760925,844.934937 871.806396,853.958130 
	C871.853210,863.266174 867.341370,870.004639 858.785522,873.153442 
	C851.219238,875.937988 843.461365,875.952026 835.754822,873.972168 
	C825.704529,871.390137 820.330200,864.868958 820.005310,855.379395 
	C819.646179,844.891907 824.167847,838.493774 834.893799,834.716064 
z"/>
<path fill="#454ABE" opacity="1.000000" stroke="none" 
	d="
M393.734497,871.900391 
	C383.978973,876.292419 374.350861,876.400085 364.774353,872.982910 
	C356.038483,869.865662 351.846893,863.185486 352.003662,853.712280 
	C352.152527,844.716736 356.740906,838.209045 365.245514,835.203369 
	C372.309082,832.706909 379.554993,832.332947 386.837067,834.069275 
	C395.384521,836.107361 401.742401,840.614624 403.286652,849.904114 
	C404.809937,859.067322 402.413361,866.687683 393.734497,871.900391 
z"/>
<path fill="#484DBF" opacity="1.000000" stroke="none" 
	d="
M917.584351,857.967041 
	C920.876526,850.722839 923.995605,843.850830 927.459900,836.218262 
	C931.359192,844.816162 934.874268,852.566956 938.700195,861.003052 
	C931.583191,861.003052 925.339966,861.074219 919.104553,860.886902 
	C918.515198,860.869202 917.974548,859.227234 917.584351,857.967041 
z"/>
</svg>