<?xml version="1.0" standalone="no"?>
<!DOCTYPE svg PUBLIC "-//W3C//DTD SVG 20010904//EN"
 "http://www.w3.org/TR/2001/REC-SVG-20010904/DTD/svg10.dtd">
<svg version="1.0" xmlns="http://www.w3.org/2000/svg"
 width="1388.000000pt" height="1571.000000pt" viewBox="0 0 1388.000000 1571.000000"
 preserveAspectRatio="xMidYMid meet">
<metadata>
Created by potrace 1.16, written by Peter Selinger 2001-2019
</metadata>
<g transform="translate(0.000000,1571.000000) scale(0.100000,-0.100000)"
fill="#000000" stroke="none">
<path d="M6385 15039 c-1088 -30 -2221 -156 -3315 -370 -486 -95 -1154 -250
-1240 -287 -60 -26 -106 -66 -133 -116 l-22 -41 0 -5440 0 -5440 24 -53 c41
-91 92 -126 363 -252 996 -463 2662 -1241 3570 -1669 704 -331 1107 -516 1149
-526 80 -18 127 -19 205 0 37 8 436 187 975 436 1030 475 2536 1166 3468 1590
525 239 632 291 673 328 51 46 81 93 93 150 4 19 7 2474 7 5456 0 4995 -1
5424 -16 5460 -42 101 -90 118 -656 249 -1745 401 -3424 572 -5145 525z m1300
-1030 c1121 -50 2243 -211 3372 -484 261 -63 310 -88 348 -178 15 -36 16 -444
17 -4705 l2 -4667 -22 -42 c-12 -23 -37 -54 -56 -68 -19 -14 -173 -89 -342
-167 -849 -387 -2198 -1006 -3049 -1398 -606 -279 -971 -442 -1007 -450 -44
-9 -72 -9 -115 0 -38 8 -283 117 -708 317 -1469 692 -2245 1056 -2884 1354
-713 332 -743 349 -775 429 -15 37 -16 441 -16 4699 -1 4315 0 4661 15 4699
22 53 69 95 137 120 64 24 440 113 743 177 1057 222 2194 353 3300 379 200 5
794 -4 1040 -15z"/>
<path d="M6005 12248 c-44 -16 -91 -48 -173 -117 -85 -71 -120 -91 -161 -91
-45 0 -76 15 -126 61 -34 32 -55 43 -87 46 -59 6 -83 -13 -83 -66 0 -35 7 -47
50 -91 28 -28 78 -65 112 -82 57 -28 69 -30 137 -26 95 6 177 45 271 128 39
34 88 71 110 81 35 16 42 16 74 3 36 -15 48 -24 137 -105 28 -26 75 -60 105
-75 47 -25 65 -29 139 -29 73 0 93 4 143 28 31 16 88 57 126 92 141 130 165
128 331 -20 93 -84 151 -108 248 -103 96 4 140 25 247 114 99 83 133 104 166
104 31 0 85 -35 152 -97 26 -24 82 -61 125 -81 145 -69 263 -46 391 77 54 52
61 63 61 98 0 98 -71 111 -160 28 -62 -58 -110 -85 -152 -85 -52 0 -84 18
-174 99 -98 88 -150 114 -237 119 -60 4 -75 1 -130 -27 -34 -17 -95 -60 -135
-96 -150 -134 -189 -131 -365 24 -87 77 -140 101 -226 101 -72 0 -135 -30
-225 -106 -105 -91 -144 -114 -191 -114 -47 0 -76 17 -170 99 -124 109 -231
144 -330 109z"/>
<path d="M6003 11612 c-55 -20 -90 -43 -195 -134 -110 -93 -174 -98 -262 -18
-86 78 -120 87 -161 45 -38 -37 -33 -77 16 -130 89 -97 215 -147 318 -126 76
15 124 42 206 116 80 71 131 105 160 105 29 0 83 -36 166 -109 104 -91 158
-114 262 -109 103 4 148 25 253 118 135 119 172 124 269 39 150 -131 205 -159
314 -159 87 0 158 34 267 127 45 38 95 75 113 83 44 18 73 3 182 -91 113 -97
161 -119 264 -119 103 0 146 20 236 107 61 59 69 70 69 104 0 49 -21 69 -74
69 -37 0 -50 -7 -106 -55 -118 -102 -168 -99 -300 21 -186 169 -308 171 -493
10 -162 -141 -199 -142 -345 -5 -96 90 -156 119 -242 119 -85 0 -137 -25 -255
-125 -147 -124 -188 -124 -326 1 -138 124 -227 155 -336 116z"/>
<path d="M6868 10986 c-57 -15 -103 -45 -189 -121 -67 -60 -128 -94 -167 -95
-40 0 -85 27 -168 102 -101 90 -158 118 -244 118 -86 0 -140 -26 -255 -124
-137 -116 -190 -123 -289 -36 -50 44 -62 50 -102 50 -67 0 -84 -13 -84 -62 0
-38 6 -48 63 -104 76 -74 137 -99 242 -98 93 0 155 29 269 128 103 88 146 107
194 82 17 -9 64 -47 106 -85 107 -100 160 -126 261 -126 101 0 160 27 266 121
41 36 93 75 116 85 38 18 46 18 75 6 18 -8 69 -47 113 -86 109 -98 168 -126
265 -126 97 0 155 28 270 130 47 41 101 80 121 86 47 15 72 2 185 -97 116
-101 155 -119 264 -119 102 1 143 18 244 101 82 67 105 108 85 150 -8 16 -26
35 -41 42 -36 17 -68 3 -137 -60 -120 -109 -172 -106 -315 22 -105 93 -160
120 -249 120 -87 0 -144 -27 -247 -116 -154 -135 -191 -135 -334 -5 -125 114
-214 147 -318 117z"/>
<path d="M6037 10349 c-60 -14 -107 -43 -187 -114 -82 -73 -136 -105 -175
-105 -39 0 -86 24 -120 60 -38 40 -75 60 -114 60 -42 0 -61 -23 -61 -76 0 -40
6 -51 46 -94 26 -28 72 -62 103 -77 47 -24 69 -28 136 -28 70 0 87 4 140 32
33 18 96 61 140 97 92 76 135 99 169 90 13 -3 54 -31 91 -62 124 -106 157
-130 207 -146 104 -33 216 -10 306 65 26 22 74 62 106 89 98 82 122 78 253
-40 105 -95 166 -124 263 -124 98 -1 159 28 271 130 98 88 138 105 191 80 19
-9 69 -48 112 -86 59 -52 97 -77 164 -105 51 -21 88 -32 90 -26 2 6 22 11 45
11 61 0 158 50 222 114 49 49 55 59 55 96 0 62 -14 80 -59 80 -33 0 -50 -9
-111 -60 -127 -106 -177 -104 -306 12 -112 101 -171 132 -254 132 -85 0 -135
-23 -229 -105 -173 -153 -206 -155 -354 -22 -111 100 -165 128 -247 127 -82 0
-132 -25 -250 -123 -47 -39 -104 -78 -127 -87 -40 -16 -46 -16 -87 0 -24 9
-79 48 -122 87 -119 104 -212 141 -307 118z"/>
<path d="M10330 7285 l0 -225 70 0 70 0 0 225 0 225 -70 0 -70 0 0 -225z"/>
<path d="M3610 7484 c-106 -29 -189 -103 -220 -198 -8 -24 -11 -73 -8 -130 3
-77 8 -99 31 -138 52 -89 141 -141 275 -160 162 -22 330 24 406 114 47 55 66
115 66 213 0 72 -4 90 -31 144 -59 118 -171 171 -358 170 -60 0 -130 -7 -161
-15z m261 -114 c90 -25 149 -101 149 -192 0 -63 -19 -106 -63 -145 -49 -43
-98 -57 -193 -57 -153 0 -245 74 -245 196 0 105 47 167 151 199 37 11 160 10
201 -1z"/>
<path d="M8307 7489 c-109 -26 -205 -111 -233 -207 -33 -114 -4 -251 69 -324
135 -135 462 -142 606 -12 74 66 96 119 96 229 0 73 -4 99 -23 140 -40 87
-111 143 -214 171 -59 15 -240 17 -301 3z m264 -124 c100 -36 152 -129 129
-232 -15 -64 -45 -102 -104 -129 -104 -47 -245 -37 -324 23 -68 52 -91 158
-51 240 37 76 109 111 230 112 45 1 94 -5 120 -14z"/>
<path d="M4280 7180 l0 -310 65 0 65 0 0 125 0 125 225 0 225 0 0 -125 0 -125
65 0 65 0 0 310 0 310 -65 0 -65 0 0 -125 0 -125 -225 0 -225 0 0 125 0 125
-65 0 -65 0 0 -310z"/>
<path d="M5360 7180 l0 -310 70 0 70 0 2 179 3 178 115 -178 115 -179 80 0 80
0 115 180 115 180 3 -180 2 -180 70 0 70 0 0 310 0 310 -69 0 -69 0 -157 -245
c-86 -135 -160 -243 -164 -241 -4 3 -76 113 -160 245 l-154 241 -68 0 -69 0 0
-310z"/>
<path d="M6350 7486 c0 -2 61 -99 135 -214 l135 -210 0 -96 0 -96 70 0 70 0 0
96 0 97 124 192 c170 265 162 235 67 235 l-79 0 -89 -145 c-48 -80 -90 -145
-93 -145 -3 0 -45 66 -93 145 l-89 145 -79 0 c-43 0 -79 -2 -79 -4z"/>
<path d="M7340 7180 l0 -310 233 0 c177 0 245 4 283 15 49 14 90 48 113 92 16
31 14 99 -4 133 -16 30 -79 70 -112 70 -10 1 -3 7 17 16 54 23 78 52 86 100
13 89 -41 163 -136 183 -28 6 -147 11 -265 11 l-215 0 0 -310z m443 177 c34
-22 37 -74 6 -103 -18 -16 -40 -19 -165 -22 l-144 -4 0 77 0 77 138 -4 c111
-2 143 -6 165 -21z m9 -248 c41 -11 56 -39 43 -79 -12 -38 -62 -50 -215 -50
l-140 0 0 70 0 70 138 0 c75 0 154 -5 174 -11z"/>
<path d="M9052 7188 c-78 -167 -142 -306 -142 -310 0 -5 33 -8 73 -8 l73 0 28
65 28 65 158 0 157 0 28 -65 27 -65 74 0 c41 0 74 3 74 8 0 4 -64 142 -143
307 l-143 300 -75 3 -75 3 -142 -303z m269 40 l46 -103 -95 -3 c-52 -1 -96 -1
-98 1 -5 5 88 207 95 207 3 0 27 -46 52 -102z"/>
<path d="M9580 7435 l0 -55 130 0 130 0 0 -255 0 -255 70 0 70 0 0 255 0 255
130 0 130 0 0 55 0 55 -330 0 -330 0 0 -55z"/>
<path d="M10320 6925 l0 -55 80 0 80 0 0 55 0 55 -80 0 -80 0 0 -55z"/>
<path d="M4680 5490 c-24 -24 -26 -57 -4 -88 l15 -22 2243 0 c2160 0 2244 1
2259 18 22 25 21 75 -1 95 -17 16 -188 17 -2255 17 -2224 0 -2237 0 -2257 -20z"/>
<path d="M5249 4478 c-28 -57 -56 -106 -61 -109 -5 -3 -52 -11 -106 -18 -101
-14 -132 -24 -132 -44 0 -6 38 -50 85 -97 l85 -85 -21 -114 c-19 -105 -19
-115 -4 -130 15 -15 24 -11 123 41 l107 56 103 -55 c56 -30 109 -52 117 -49
19 7 19 47 -1 160 l-15 89 86 87 c114 114 113 117 -45 140 -41 6 -85 13 -98
16 -17 3 -35 30 -74 109 -71 141 -80 141 -149 3z"/>
<path d="M6095 4479 c-28 -55 -57 -104 -65 -109 -8 -4 -58 -13 -110 -20 -100
-14 -130 -23 -130 -43 0 -6 39 -50 86 -98 l85 -86 -19 -109 c-19 -108 -17
-144 11 -144 7 0 57 25 112 54 l100 54 107 -56 c98 -52 109 -56 123 -41 14 14
14 25 -5 130 l-20 113 85 86 c47 47 85 91 85 97 0 20 -30 30 -125 43 -49 6
-98 14 -108 17 -12 3 -37 44 -67 109 -42 89 -53 104 -72 104 -20 0 -32 -16
-73 -101z"/>
<path d="M6982 4568 c-5 -7 -30 -54 -56 -105 -26 -52 -53 -94 -63 -97 -10 -2
-54 -10 -98 -16 -44 -6 -90 -13 -102 -16 -43 -9 -27 -44 58 -130 l81 -82 -16
-95 c-20 -117 -20 -146 -1 -153 8 -3 61 19 118 49 l104 55 103 -54 c103 -55
140 -62 140 -26 0 9 -9 64 -20 122 l-19 105 84 82 c118 114 116 124 -42 143
-56 7 -106 16 -111 19 -5 3 -33 52 -61 109 -51 102 -73 122 -99 90z"/>
<path d="M7826 4573 c-3 -4 -26 -48 -50 -99 -24 -51 -52 -97 -62 -102 -11 -5
-59 -15 -109 -22 -49 -6 -98 -14 -107 -16 -37 -11 -19 -48 63 -130 l82 -82
-19 -116 c-14 -90 -15 -119 -6 -128 10 -10 37 0 122 42 l110 54 110 -54 c139
-69 141 -68 117 73 -9 56 -17 111 -17 121 0 11 34 51 80 93 57 53 80 82 80 99
0 27 2 26 -143 48 -55 8 -100 16 -102 18 -1 2 -26 49 -54 106 -37 73 -56 102
-69 102 -10 0 -22 -3 -26 -7z"/>
<path d="M8619 4478 c-28 -57 -56 -106 -61 -109 -5 -3 -55 -12 -111 -19 -157
-19 -162 -33 -45 -141 l82 -76 -13 -89 c-7 -49 -15 -105 -18 -125 -8 -58 15
-57 134 4 l106 54 104 -54 c57 -30 110 -52 118 -49 19 7 19 39 -2 153 l-16 94
81 82 c83 83 101 120 65 131 -10 2 -58 10 -108 16 -49 7 -96 16 -104 20 -8 4
-37 52 -65 106 -71 137 -79 137 -147 2z"/>
</g>
</svg>
